# xmcd
#
# Track frame offsets:
#	150
#	17662
#	34169
#	49631
#	66095
#	78195
#	91402
#	108131
#	122436
#	138173
#	150620
#	174887
#
# Disc length: 2706 seconds
#
# Revision: 0
# Processed by: cddbd v1.4PL0 Copyright (c) Steve Scherf et al.
# Submitted via: EasyCDDAExtractor 4.6.9.1
#
DISCID=830a900c
DTITLE=Shelley Lane - Skipping Stones
DYEAR=2001
DGENRE=Country
TTITLE0=I Need Your Love
TTITLE1=Skipping Stones
TTITLE2=Blackbird
TTITLE3=It Just Feels That Way
TTITLE4=Ain't It Just Like Love
TTITLE5=Give It All Up
TTITLE6=Not This Time
TTITLE7=We Love And We Learn
TTITLE8=Fast Train
TTITLE9=Get Back Home
TTITLE10=No Easy Way To Say Goodbye
TTITLE11=Data
EXTD=
EXTT0=
EXTT1=
EXTT2=
EXTT3=
EXTT4=
EXTT5=
EXTT6=
EXTT7=
EXTT8=
EXTT9=
EXTT10=
EXTT11=
PLAYORDER=
